<mxfile host="app.diagrams.net" modified="2024-06-13T02:28:26.804Z" agent="Mozilla/5.0 (Windows NT 10.0; Win64; x64) AppleWebKit/537.36 (KHTML, like Gecko) Chrome/125.0.0.0 Safari/537.36" etag="fG3vbaLvshyuLy3NUsNJ" version="24.5.4" type="device">
  <diagram name="Page-1" id="2VLFdgkySJc986iEVBLf">
    <mxGraphModel dx="875" dy="464" grid="1" gridSize="10" guides="1" tooltips="1" connect="1" arrows="1" fold="1" page="1" pageScale="1" pageWidth="850" pageHeight="1100" math="0" shadow="0">
      <root>
        <mxCell id="0" />
        <mxCell id="1" parent="0" />
        <mxCell id="GYO3o_3RGIEp0vpGIqhG-18" value="" style="rounded=0;whiteSpace=wrap;html=1;fillColor=none;" vertex="1" parent="1">
          <mxGeometry x="393" y="58" width="320" height="472" as="geometry" />
        </mxCell>
        <mxCell id="GYO3o_3RGIEp0vpGIqhG-38" value="" style="rounded=0;whiteSpace=wrap;html=1;fillColor=none;" vertex="1" parent="1">
          <mxGeometry x="219" y="340" width="140.5" height="190" as="geometry" />
        </mxCell>
        <mxCell id="GYO3o_3RGIEp0vpGIqhG-35" value="" style="rounded=0;whiteSpace=wrap;html=1;fillColor=#003300;" vertex="1" parent="1">
          <mxGeometry x="219" y="340" width="91" height="40" as="geometry" />
        </mxCell>
        <mxCell id="GYO3o_3RGIEp0vpGIqhG-23" value="" style="rounded=0;whiteSpace=wrap;html=1;fillColor=none;" vertex="1" parent="1">
          <mxGeometry x="219" y="60" width="140.5" height="270" as="geometry" />
        </mxCell>
        <mxCell id="GYO3o_3RGIEp0vpGIqhG-26" value="" style="rounded=0;whiteSpace=wrap;html=1;fillColor=#000066;" vertex="1" parent="1">
          <mxGeometry x="219" y="60" width="81" height="40" as="geometry" />
        </mxCell>
        <mxCell id="GYO3o_3RGIEp0vpGIqhG-21" value="" style="rounded=0;whiteSpace=wrap;html=1;fillColor=#1A1A1A;" vertex="1" parent="1">
          <mxGeometry x="393" y="58" width="90" height="40" as="geometry" />
        </mxCell>
        <mxCell id="GYO3o_3RGIEp0vpGIqhG-1" value="PPA Repository" style="verticalLabelPosition=bottom;aspect=fixed;html=1;shape=mxgraph.salesforce.data2;shadow=0;dashed=0;sketch=0;pointerEvents=1;align=center;verticalAlign=top;fontFamily=Segoe UI;fontSize=12;fontColor=default;fontStyle=1;fillColor=#00188D;" vertex="1" parent="1">
          <mxGeometry x="100" y="120" width="60" height="60" as="geometry" />
        </mxCell>
        <mxCell id="GYO3o_3RGIEp0vpGIqhG-2" value="Raw Files" style="sketch=0;aspect=fixed;pointerEvents=1;shadow=0;dashed=0;html=1;strokeColor=none;labelPosition=center;verticalLabelPosition=bottom;verticalAlign=top;align=center;fillColor=#00188D;shape=mxgraph.mscae.enterprise.backup_local;fontFamily=Segoe UI;fontStyle=1" vertex="1" parent="1">
          <mxGeometry x="260" y="120" width="49" height="50" as="geometry" />
        </mxCell>
        <mxCell id="GYO3o_3RGIEp0vpGIqhG-3" style="edgeStyle=orthogonalEdgeStyle;rounded=0;orthogonalLoop=1;jettySize=auto;html=1;entryX=0.008;entryY=0.604;entryDx=0;entryDy=0;entryPerimeter=0;" edge="1" parent="1" source="GYO3o_3RGIEp0vpGIqhG-1" target="GYO3o_3RGIEp0vpGIqhG-2">
          <mxGeometry relative="1" as="geometry" />
        </mxCell>
        <mxCell id="GYO3o_3RGIEp0vpGIqhG-7" value="Data Processing Script" style="sketch=0;aspect=fixed;pointerEvents=1;shadow=0;dashed=0;html=1;strokeColor=none;labelPosition=center;verticalLabelPosition=bottom;verticalAlign=top;align=center;fillColor=#00188D;shape=mxgraph.azure.script_file;fontFamily=Segoe UI;fontSize=12;fontColor=default;fontStyle=1;" vertex="1" parent="1">
          <mxGeometry x="455" y="240" width="47" height="50" as="geometry" />
        </mxCell>
        <mxCell id="GYO3o_3RGIEp0vpGIqhG-8" style="rounded=0;orthogonalLoop=1;jettySize=auto;html=1;entryX=0.209;entryY=0.386;entryDx=0;entryDy=0;entryPerimeter=0;" edge="1" parent="1" source="GYO3o_3RGIEp0vpGIqhG-2" target="GYO3o_3RGIEp0vpGIqhG-18">
          <mxGeometry relative="1" as="geometry">
            <mxPoint x="455" y="260" as="targetPoint" />
          </mxGeometry>
        </mxCell>
        <mxCell id="GYO3o_3RGIEp0vpGIqhG-9" value="Port City Mapper&lt;div&gt;&lt;br&gt;&lt;/div&gt;" style="sketch=0;outlineConnect=0;fontColor=default;gradientColor=none;fillColor=#00188D;strokeColor=none;dashed=0;verticalLabelPosition=bottom;verticalAlign=top;align=center;html=1;fontSize=12;fontStyle=1;aspect=fixed;pointerEvents=1;shape=mxgraph.aws4.json_script;shadow=0;fontFamily=Segoe UI;" vertex="1" parent="1">
          <mxGeometry x="460" y="110" width="37" height="50.63" as="geometry" />
        </mxCell>
        <mxCell id="GYO3o_3RGIEp0vpGIqhG-10" style="edgeStyle=orthogonalEdgeStyle;rounded=0;orthogonalLoop=1;jettySize=auto;html=1;entryX=0.5;entryY=0;entryDx=0;entryDy=0;entryPerimeter=0;dashed=1;" edge="1" parent="1" source="GYO3o_3RGIEp0vpGIqhG-9" target="GYO3o_3RGIEp0vpGIqhG-7">
          <mxGeometry relative="1" as="geometry" />
        </mxCell>
        <mxCell id="GYO3o_3RGIEp0vpGIqhG-11" value="Processed Data" style="image;aspect=fixed;html=1;points=[];align=center;fontSize=12;image=img/lib/azure2/general/Files.svg;fontStyle=1;shadow=0;dashed=0;sketch=0;pointerEvents=1;verticalAlign=top;fontFamily=Segoe UI;fontColor=default;fillColor=#00188D;" vertex="1" parent="1">
          <mxGeometry x="260" y="227.66" width="57" height="62.34" as="geometry" />
        </mxCell>
        <mxCell id="GYO3o_3RGIEp0vpGIqhG-12" value="PSGC Mapping Script" style="sketch=0;aspect=fixed;pointerEvents=1;shadow=0;dashed=0;html=1;strokeColor=none;labelPosition=center;verticalLabelPosition=bottom;verticalAlign=top;align=center;fillColor=#00188D;shape=mxgraph.azure.script_file;fontFamily=Segoe UI;fontSize=12;fontColor=default;fontStyle=1;" vertex="1" parent="1">
          <mxGeometry x="610" y="240" width="47" height="50" as="geometry" />
        </mxCell>
        <mxCell id="GYO3o_3RGIEp0vpGIqhG-14" value="&lt;div&gt;Ambiguos Cities Dedup&lt;/div&gt;" style="sketch=0;outlineConnect=0;fontColor=default;gradientColor=none;fillColor=#00188D;strokeColor=none;dashed=0;verticalLabelPosition=bottom;verticalAlign=top;align=center;html=1;fontSize=12;fontStyle=1;aspect=fixed;pointerEvents=1;shape=mxgraph.aws4.json_script;shadow=0;fontFamily=Segoe UI;" vertex="1" parent="1">
          <mxGeometry x="615" y="110" width="37" height="50.63" as="geometry" />
        </mxCell>
        <mxCell id="GYO3o_3RGIEp0vpGIqhG-15" style="edgeStyle=orthogonalEdgeStyle;rounded=0;orthogonalLoop=1;jettySize=auto;html=1;entryX=0.5;entryY=0;entryDx=0;entryDy=0;entryPerimeter=0;dashed=1;" edge="1" parent="1" source="GYO3o_3RGIEp0vpGIqhG-14" target="GYO3o_3RGIEp0vpGIqhG-12">
          <mxGeometry relative="1" as="geometry" />
        </mxCell>
        <mxCell id="GYO3o_3RGIEp0vpGIqhG-16" style="edgeStyle=orthogonalEdgeStyle;rounded=0;orthogonalLoop=1;jettySize=auto;html=1;entryX=1.018;entryY=0.696;entryDx=0;entryDy=0;entryPerimeter=0;" edge="1" parent="1" source="GYO3o_3RGIEp0vpGIqhG-7" target="GYO3o_3RGIEp0vpGIqhG-11">
          <mxGeometry relative="1" as="geometry">
            <Array as="points">
              <mxPoint x="420" y="271" />
              <mxPoint x="420" y="271" />
            </Array>
          </mxGeometry>
        </mxCell>
        <mxCell id="GYO3o_3RGIEp0vpGIqhG-17" style="edgeStyle=orthogonalEdgeStyle;rounded=0;orthogonalLoop=1;jettySize=auto;html=1;entryX=1;entryY=0.5;entryDx=0;entryDy=0;entryPerimeter=0;dashed=1;" edge="1" parent="1" source="GYO3o_3RGIEp0vpGIqhG-12" target="GYO3o_3RGIEp0vpGIqhG-7">
          <mxGeometry relative="1" as="geometry" />
        </mxCell>
        <mxCell id="GYO3o_3RGIEp0vpGIqhG-19" value="" style="dashed=0;outlineConnect=0;html=1;align=center;labelPosition=center;verticalLabelPosition=bottom;verticalAlign=top;shape=mxgraph.weblogos.github" vertex="1" parent="1">
          <mxGeometry x="396" y="62" width="30" height="30" as="geometry" />
        </mxCell>
        <mxCell id="GYO3o_3RGIEp0vpGIqhG-20" value="&lt;b&gt;GitHub&lt;/b&gt;" style="text;html=1;align=center;verticalAlign=middle;whiteSpace=wrap;rounded=0;fontColor=#FFFFFF;" vertex="1" parent="1">
          <mxGeometry x="420" y="63" width="60" height="30" as="geometry" />
        </mxCell>
        <mxCell id="GYO3o_3RGIEp0vpGIqhG-22" value="" style="shape=image;verticalLabelPosition=bottom;labelBackgroundColor=default;verticalAlign=top;aspect=fixed;imageAspect=0;image=https://static-00.iconduck.com/assets.00/file-type-dvc-icon-512x293-js3het8o.png;" vertex="1" parent="1">
          <mxGeometry x="225.05" y="70.00000000000003" width="34.95" height="20" as="geometry" />
        </mxCell>
        <mxCell id="GYO3o_3RGIEp0vpGIqhG-27" value="&lt;b&gt;DVC&lt;/b&gt;" style="text;html=1;align=center;verticalAlign=middle;whiteSpace=wrap;rounded=0;fontColor=#FFFFFF;" vertex="1" parent="1">
          <mxGeometry x="249" y="65" width="60" height="30" as="geometry" />
        </mxCell>
        <mxCell id="GYO3o_3RGIEp0vpGIqhG-29" value="" style="dashed=0;outlineConnect=0;html=1;align=center;labelPosition=center;verticalLabelPosition=bottom;verticalAlign=top;shape=mxgraph.weblogos.google_drive" vertex="1" parent="1">
          <mxGeometry x="225.05" y="350" width="24.7" height="20" as="geometry" />
        </mxCell>
        <mxCell id="GYO3o_3RGIEp0vpGIqhG-40" style="rounded=0;orthogonalLoop=1;jettySize=auto;html=1;" edge="1" parent="1" source="GYO3o_3RGIEp0vpGIqhG-30" target="GYO3o_3RGIEp0vpGIqhG-39">
          <mxGeometry relative="1" as="geometry" />
        </mxCell>
        <mxCell id="GYO3o_3RGIEp0vpGIqhG-30" value="DVC Config" style="fillColor=#00188D;verticalLabelPosition=bottom;sketch=0;html=1;strokeColor=#ffffff;verticalAlign=top;align=center;points=[[0.145,0.145,0],[0.5,0,0],[0.855,0.145,0],[1,0.5,0],[0.855,0.855,0],[0.5,1,0],[0.145,0.855,0],[0,0.5,0]];pointerEvents=1;shape=mxgraph.cisco_safe.compositeIcon;bgIcon=ellipse;resIcon=mxgraph.cisco_safe.capability.policy_configuration;shadow=0;dashed=0;fontFamily=Segoe UI;fontSize=12;fontColor=default;fontStyle=1;" vertex="1" parent="1">
          <mxGeometry x="531.5" y="350" width="43" height="43" as="geometry" />
        </mxCell>
        <mxCell id="GYO3o_3RGIEp0vpGIqhG-31" value="" style="shape=image;verticalLabelPosition=bottom;labelBackgroundColor=default;verticalAlign=top;aspect=fixed;imageAspect=0;image=https://static-00.iconduck.com/assets.00/file-type-dvc-icon-512x293-js3het8o.png;" vertex="1" parent="1">
          <mxGeometry x="535.52" y="330" width="34.95" height="20" as="geometry" />
        </mxCell>
        <mxCell id="GYO3o_3RGIEp0vpGIqhG-32" style="rounded=0;orthogonalLoop=1;jettySize=auto;html=1;entryX=-0.01;entryY=0.297;entryDx=0;entryDy=0;entryPerimeter=0;exitX=0.997;exitY=0.948;exitDx=0;exitDy=0;exitPerimeter=0;dashed=1;" edge="1" parent="1" source="GYO3o_3RGIEp0vpGIqhG-23" target="GYO3o_3RGIEp0vpGIqhG-30">
          <mxGeometry relative="1" as="geometry" />
        </mxCell>
        <mxCell id="GYO3o_3RGIEp0vpGIqhG-33" value="DVC Cache" style="sketch=0;outlineConnect=0;fontColor=default;gradientColor=none;strokeColor=#232F3E;fillColor=none;dashed=0;verticalLabelPosition=bottom;verticalAlign=top;align=center;html=1;fontSize=12;fontStyle=1;aspect=fixed;shape=mxgraph.aws4.resourceIcon;resIcon=mxgraph.aws4.cache_node;shadow=0;pointerEvents=1;fontFamily=Segoe UI;" vertex="1" parent="1">
          <mxGeometry x="523" y="440" width="60" height="60" as="geometry" />
        </mxCell>
        <mxCell id="GYO3o_3RGIEp0vpGIqhG-34" style="rounded=0;orthogonalLoop=1;jettySize=auto;html=1;entryX=0.5;entryY=1;entryDx=0;entryDy=0;entryPerimeter=0;dashed=1;" edge="1" parent="1" source="GYO3o_3RGIEp0vpGIqhG-33" target="GYO3o_3RGIEp0vpGIqhG-30">
          <mxGeometry relative="1" as="geometry" />
        </mxCell>
        <mxCell id="GYO3o_3RGIEp0vpGIqhG-37" value="&lt;b&gt;GDrive&lt;/b&gt;" style="text;html=1;align=center;verticalAlign=middle;whiteSpace=wrap;rounded=0;fontColor=#FFFFFF;" vertex="1" parent="1">
          <mxGeometry x="249" y="345" width="60" height="30" as="geometry" />
        </mxCell>
        <mxCell id="GYO3o_3RGIEp0vpGIqhG-39" value="Data Hash Files" style="sketch=0;outlineConnect=0;fontColor=default;gradientColor=none;strokeColor=#232F3E;fillColor=none;dashed=0;verticalLabelPosition=bottom;verticalAlign=top;align=center;html=1;fontSize=12;fontStyle=1;aspect=fixed;shape=mxgraph.aws4.resourceIcon;resIcon=mxgraph.aws4.data_encryption_key;shadow=0;pointerEvents=1;fontFamily=Segoe UI;" vertex="1" parent="1">
          <mxGeometry x="254.5" y="405" width="60" height="60" as="geometry" />
        </mxCell>
      </root>
    </mxGraphModel>
  </diagram>
</mxfile>
